<svg width="212" height="160" viewBox="0 0 212 160" fill="none" xmlns="http://www.w3.org/2000/svg"><path d="M60 78.16c0-20.792 0-31.188 6.44-37.72C72.88 34 83.276 34 104.16 34h3.68c20.792 0 31.188 0 37.72 6.44C152 46.88 152 57.276 152 78.16v3.68c0 20.792 0 31.188-6.44 37.72-6.44 6.44-16.836 6.44-37.72 6.44h-3.68c-20.792 0-31.188 0-37.72-6.44C60 113.12 60 102.724 60 81.84v-3.68z" fill="#07F"/><path d="M108.944 100.24c-20.976 0-32.936-14.352-33.396-38.272h10.488c.368 17.572 8.096 25.023 14.26 26.495V61.968h9.936v15.18c6.072-.644 12.42-7.544 14.536-15.18h9.936c-1.656 9.383-8.556 16.283-13.432 19.135 4.876 2.3 12.788 8.28 15.732 19.229h-10.856c-2.3-7.268-8.188-12.88-15.824-13.708v13.616h-1.38z" fill="#fff"/></svg>