<svg width="780" height="656" viewBox="0 0 780 656" fill="none" xmlns="http://www.w3.org/2000/svg"><path d="M183.157 135.525c-10.088-3.006-17.049-14.38-18.893-30.861-.099-.885-.876-.885-.975 0-1.844 16.481-8.805 27.855-18.892 30.861-.54.162-.524 1.427.016 1.588 10.083 3.015 17.041 14.395 18.88 30.885.097.885.872.859.971-.026 1.844-16.484 8.805-27.858 18.893-30.864.539-.159.539-1.421 0-1.583zM635.478 389.449c-13.003-3.952-21.977-18.907-24.355-40.577-.127-1.163-1.129-1.163-1.256 0-2.377 21.67-11.352 36.625-24.355 40.577-.696.213-.676 1.876.02 2.088 12.999 3.964 21.969 18.926 24.339 40.607.125 1.163 1.125 1.13 1.252-.033 2.378-21.674 11.352-36.629 24.355-40.581.696-.209.696-1.868 0-2.081z" fill="#AEA8FF" stroke="#AEA8FF" stroke-width="4" stroke-linecap="round" stroke-linejoin="round"/><path d="M592.381 225.934c34.363-2.301 48.954-39.313 36.762-61.35-12.191-22.038-23.347-4.88-12.524 2.735 12.754 8.973 73.111 2.785 71.33-57.786M142.447 401.07 86 413.131m56.447 6.272-40.044 19.298m56.93-8.684-16.886 19.298" stroke="#222" stroke-width="4" stroke-linecap="round" stroke-linejoin="round"/><path d="m240.636 215.211-34.505 156.911c-4.907 37.968 31.842 68.509 72.254 81.762l165.996 31.667c42.803 8.166 83.063-23.07 85.788-66.56 0 0 6.844-61.998 9.338-101.869 2.485-39.72 3.428-101.852 3.428-101.852 2.767-44.165-46.183-93.027-90.269-89.2l-146.518 26.321c-33.887 2.942-61.151 29.086-65.512 62.82z" fill="#3582E2"/><path d="M213.688 203.812s-8.221 43.924-11.899 72.302c-3.714 28.658-6.968 73.667-6.968 73.667-5.3 41.005 22.253 79.044 62.867 86.792 0 0 48.499 10.929 80.636 17.084 32.74 6.271 85.381 14.587 85.381 14.587 39.95 7.621 77.525-21.532 80.069-62.123 0 0 6.583-63.872 9.198-104.92 2.73-42.847 4.26-109.856 4.26-109.856 2.583-41.221-32.106-75.087-73.253-71.515 0 0-49.573 1.59-80.568 4.311-30.342 2.663-76.35 9.312-76.35 9.312-37.954 3.295-68.49 32.577-73.373 70.359z" fill="#3394FF"/><path d="M290.744 224.757c-.891 61.438 22.951 81.434 30.501 85.153.986.486 1.967-.208 2.111-1.297l11.088-83.619a2 2 0 0 1 1.982-1.737h31.225a1.993 1.993 0 0 1 1.989 2.217c-1.61 14.168-4.229 38.244-4.565 45.196-.05 1.029.788 1.746 1.813 1.642 31.447-3.203 48.837-32.1 54.171-47.661a2.045 2.045 0 0 1 1.927-1.394h33.747c1.399 0 2.37 1.385 1.843 2.681-7.741 19.073-26.57 52.956-50.778 63.206-1.845.781-1.99 3.934-.196 4.826 28.23 14.031 41.851 49.757 45.758 69.044.263 1.295-.812 2.438-2.126 2.305-13.507-1.358-35.715-3.648-40.756-4.375-.651-.094-1.077-.59-1.179-1.24-5.225-33.531-33.206-46.237-48.464-48.827-1.116-.189-2.117.64-2.212 1.768l-3.52 41.806c-.092 1.089-1.079 1.901-2.168 1.813-87.955-7.096-101.405-75.983-96.111-131.247a1.971 1.971 0 0 1 1.945-1.786c9.667-.135 25.604-.29 30.543-.096.876.034 1.445.746 1.432 1.622z" fill="#fff" stroke="#fff" stroke-width="4" stroke-linejoin="round"/><path d="M281.122 323.333c14.628 11.915 34.799 20.115 62.198 22.32a1.987 1.987 0 0 0 2.134-1.816l3.52-41.806c.095-1.128 1.096-1.957 2.213-1.768 15.257 2.59 43.238 15.296 48.463 48.827.102.65.528 1.146 1.18 1.24 5.04.727 27.248 3.017 40.755 4.375 1.314.132 2.389-1.01 2.126-2.305-3.907-19.287-17.528-55.013-45.758-69.045-1.794-.891-1.649-4.044.196-4.825 24.208-10.25 43.037-44.134 50.779-63.206.526-1.296-.444-2.681-1.844-2.681h-33.747c-.874 0-1.643.566-1.927 1.394-5.334 15.561-22.724 44.458-54.171 47.661-1.025.104-1.863-.613-1.813-1.642.336-6.952 2.955-31.028 4.565-45.196a1.993 1.993 0 0 0-1.989-2.217h-31.224a2 2 0 0 0-1.983 1.737l-11.088 83.619c-.144 1.089-1.125 1.783-2.111 1.297-7.55-3.719-31.392-23.715-30.501-85.153.013-.876-.556-1.588-1.432-1.622-4.939-.194-20.876-.039-30.543.096a1.98 1.98 0 0 0-1.946 1.794c-1.79 18.695-1.435 38.95 3.224 57.843" stroke="#222" stroke-width="4" stroke-linejoin="round"/><path d="M396.701 452.693c26.535 4.342 56.35 9.36 75.263-9.167 18.912-18.526 19.977-32.324 21.71-44.868 10.132-73.333 20.815-195.877 13.991-227.719-4.342-20.263-16.403-58.377-61.271-61.754-35.895-2.701-136.535 6.272-190.088 19.298-19.298 4.695-41.008 20.071-48.727 48.246-9.65 35.219-23.641 157.756-23.641 175.131 0 25.087 21.228 77.675 89.254 91.666 54.421 11.193 125.921 25.57 157.763 31.36 29.43 5.351 78.351-6.851 86.842-47.763 10.614-51.14 23.64-207.456 13.026-239.298" stroke="#222" stroke-width="4" stroke-linejoin="round"/><path d="M634.963 378.238c-15.746-4.217-26.612-20.175-29.49-43.299-.155-1.241-1.368-1.241-1.522 0-2.879 23.124-13.745 39.082-29.491 43.299-.842.227-.818 2.001.024 2.228 15.741 4.229 26.602 20.195 29.472 43.331.152 1.241 1.362 1.205 1.517-.036 2.878-23.128 13.744-39.086 29.49-43.303.842-.223.842-1.993 0-2.22zM178.695 124.525c-10.087-3.006-17.048-14.38-18.892-30.861-.099-.885-.876-.885-.975 0-1.844 16.481-8.805 27.855-18.893 30.861-.539.162-.523 1.427.016 1.588 10.084 3.015 17.042 14.395 18.88 30.885.098.885.873.859.972-.026 1.844-16.484 8.805-27.858 18.892-30.864.54-.159.54-1.421 0-1.583z" stroke="#1D1D1F" stroke-width="4" stroke-linecap="round" stroke-linejoin="round"/><path d="M543.367 112.079a7.72 7.72 0 1 1-3.599-6.528M116.052 248.726a7.72 7.72 0 1 1 7.055 2.407M252.724 492.942a7.72 7.72 0 1 1 1.554-7.291" stroke="#222" stroke-width="4" stroke-linecap="round"/></svg>